<mxfile host="drawio-plugin" modified="2024-07-19T06:43:46.757Z" agent="Mozilla/5.0 (Windows NT 10.0; Win64; x64) AppleWebKit/537.36 (KHTML, like Gecko) Chrome/122.0.0.0 Safari/537.36" etag="jafKhPIXAk6LFyRYSsRh" version="22.1.22" type="embed">
  <diagram id="EUNj880BrhCWBs-la3PF" name="Page-1">
    <mxGraphModel dx="1351" dy="787" grid="1" gridSize="10" guides="1" tooltips="1" connect="1" arrows="1" fold="1" page="1" pageScale="1" pageWidth="850" pageHeight="1100" math="0" shadow="0">
      <root>
        <mxCell id="0" />
        <mxCell id="1" parent="0" />
        <mxCell id="5" value="" style="rounded=0;whiteSpace=wrap;html=1;strokeColor=#97D077;fillColor=default;" parent="1" vertex="1">
          <mxGeometry x="380" y="675" width="470" height="295" as="geometry" />
        </mxCell>
        <mxCell id="8" value="Controller" style="rounded=1;whiteSpace=wrap;html=1;strokeColor=#9673a6;fillColor=#BD93F9;dashed=1;" parent="1" vertex="1">
          <mxGeometry x="731.25" y="700" width="100" height="50" as="geometry" />
        </mxCell>
        <mxCell id="9" value="ValidationComposite" style="rounded=1;whiteSpace=wrap;html=1;strokeColor=#8BE9FD;fillColor=#8BE9FD;" parent="1" vertex="1">
          <mxGeometry x="721.25" y="770" width="120" height="50" as="geometry" />
        </mxCell>
        <mxCell id="11" value="SignupController" style="rounded=1;whiteSpace=wrap;html=1;strokeColor=#8BE9FD;fillColor=#8BE9FD;" parent="1" vertex="1">
          <mxGeometry x="566.25" y="700" width="115" height="50" as="geometry" />
        </mxCell>
        <mxCell id="49" value="" style="edgeStyle=segmentEdgeStyle;endArrow=classic;html=1;curved=0;rounded=0;endSize=8;startSize=8;entryX=0.5;entryY=0;entryDx=0;entryDy=0;exitX=1;exitY=0.5;exitDx=0;exitDy=0;strokeColor=#6C8EBF;" parent="1" target="18" edge="1">
          <mxGeometry width="50" height="50" relative="1" as="geometry">
            <mxPoint x="548.75" y="925.0000000000002" as="sourcePoint" />
            <mxPoint x="590" y="850" as="targetPoint" />
          </mxGeometry>
        </mxCell>
        <mxCell id="50" value="" style="edgeStyle=segmentEdgeStyle;endArrow=classic;html=1;curved=0;rounded=0;endSize=8;startSize=8;entryX=0.5;entryY=1;entryDx=0;entryDy=0;exitX=0;exitY=0.5;exitDx=0;exitDy=0;strokeColor=#6C8EBF;" parent="1" target="15" edge="1">
          <mxGeometry width="50" height="50" relative="1" as="geometry">
            <mxPoint x="421.25" y="925.0000000000002" as="sourcePoint" />
            <mxPoint x="590" y="850" as="targetPoint" />
          </mxGeometry>
        </mxCell>
        <mxCell id="53" value="" style="edgeStyle=segmentEdgeStyle;endArrow=classic;html=1;curved=0;rounded=0;endSize=8;startSize=8;entryX=0.5;entryY=0;entryDx=0;entryDy=0;exitX=0;exitY=0.5;exitDx=0;exitDy=0;strokeColor=#6C8EBF;" parent="1" target="21" edge="1">
          <mxGeometry width="50" height="50" relative="1" as="geometry">
            <mxPoint x="421.25" y="925.0000000000002" as="sourcePoint" />
            <mxPoint x="590" y="850" as="targetPoint" />
          </mxGeometry>
        </mxCell>
        <mxCell id="55" value="" style="edgeStyle=segmentEdgeStyle;endArrow=classic;html=1;curved=0;rounded=0;endSize=8;startSize=8;entryX=0.5;entryY=1;entryDx=0;entryDy=0;exitX=1;exitY=0.5;exitDx=0;exitDy=0;strokeColor=#6C8EBF;" parent="1" target="22" edge="1">
          <mxGeometry width="50" height="50" relative="1" as="geometry">
            <mxPoint x="548.75" y="925.0000000000002" as="sourcePoint" />
            <mxPoint x="580" y="850" as="targetPoint" />
          </mxGeometry>
        </mxCell>
        <mxCell id="57" value="&lt;span style=&quot;font-size: 15px;&quot;&gt;&lt;b&gt;APPLICATION&lt;br&gt;&lt;/b&gt;&lt;/span&gt;" style="text;html=1;align=center;verticalAlign=middle;resizable=0;points=[];autosize=1;strokeColor=none;fillColor=none;" parent="1" vertex="1">
          <mxGeometry x="729" y="639" width="120" height="30" as="geometry" />
        </mxCell>
        <mxCell id="58" value="" style="rounded=0;whiteSpace=wrap;html=1;strokeColor=#97D077;fillColor=default;" parent="1" vertex="1">
          <mxGeometry x="380" y="410" width="470" height="185" as="geometry" />
        </mxCell>
        <mxCell id="73" value="&lt;span style=&quot;font-size: 15px;&quot;&gt;&lt;b&gt;DOMAIN&lt;/b&gt;&lt;/span&gt;" style="text;html=1;align=center;verticalAlign=middle;resizable=0;points=[];autosize=1;strokeColor=none;fillColor=none;" parent="1" vertex="1">
          <mxGeometry x="770" y="379" width="80" height="30" as="geometry" />
        </mxCell>
        <mxCell id="79" value="ConflictException" style="rounded=1;whiteSpace=wrap;html=1;strokeColor=#d6b656;fillColor=#FF79C6;" parent="1" vertex="1">
          <mxGeometry x="721.25" y="490" width="122.5" height="50" as="geometry" />
        </mxCell>
        <mxCell id="81" value="Signup" style="rounded=1;whiteSpace=wrap;html=1;strokeColor=#8BE9FD;fillColor=#8BE9FD;" parent="1" vertex="1">
          <mxGeometry x="548.75" y="530" width="150" height="50" as="geometry" />
        </mxCell>
        <mxCell id="93" value="" style="rounded=0;whiteSpace=wrap;html=1;strokeColor=none;strokeWidth=3;fillColor=#FF79C6;fontSize=13;fontColor=#F8F8F2;align=right;" parent="1" vertex="1">
          <mxGeometry x="248" y="39" width="20" height="20" as="geometry" />
        </mxCell>
        <mxCell id="94" value="&lt;font color=&quot;#000000&quot;&gt;Entities&lt;/font&gt;" style="text;html=1;resizable=0;points=[];autosize=1;align=left;verticalAlign=middle;spacingTop=-4;fontSize=13;fontColor=#F8F8F2;" parent="1" vertex="1">
          <mxGeometry x="270" y="39" width="70" height="20" as="geometry" />
        </mxCell>
        <mxCell id="95" value="" style="rounded=0;whiteSpace=wrap;html=1;strokeColor=none;strokeWidth=3;fillColor=#BD93F9;fontSize=13;fontColor=#F8F8F2;align=right;" parent="1" vertex="1">
          <mxGeometry x="248" y="68" width="20" height="20" as="geometry" />
        </mxCell>
        <mxCell id="96" value="&lt;font color=&quot;#000000&quot;&gt;Abstraction&lt;/font&gt;" style="text;html=1;resizable=0;points=[];autosize=1;align=left;verticalAlign=middle;spacingTop=-4;fontSize=13;fontColor=#F8F8F2;" parent="1" vertex="1">
          <mxGeometry x="270" y="68" width="90" height="20" as="geometry" />
        </mxCell>
        <mxCell id="97" value="" style="rounded=0;whiteSpace=wrap;html=1;strokeColor=none;strokeWidth=3;fillColor=#8BE9FD;fontSize=13;fontColor=#F8F8F2;align=right;" parent="1" vertex="1">
          <mxGeometry x="248" y="99" width="20" height="20" as="geometry" />
        </mxCell>
        <mxCell id="98" value="&lt;font color=&quot;#000000&quot;&gt;Implementation&lt;/font&gt;" style="text;html=1;resizable=0;points=[];autosize=1;align=left;verticalAlign=middle;spacingTop=-4;fontSize=13;fontColor=#F8F8F2;" parent="1" vertex="1">
          <mxGeometry x="270" y="99" width="110" height="20" as="geometry" />
        </mxCell>
        <mxCell id="99" value="" style="rounded=0;whiteSpace=wrap;html=1;strokeColor=none;strokeWidth=3;fillColor=#50FA7B;fontSize=13;fontColor=#F8F8F2;align=right;" parent="1" vertex="1">
          <mxGeometry x="248" y="10" width="20" height="20" as="geometry" />
        </mxCell>
        <mxCell id="100" value="&lt;font color=&quot;#000000&quot;&gt;Layer&lt;/font&gt;" style="text;html=1;resizable=0;points=[];autosize=1;align=left;verticalAlign=middle;spacingTop=-4;fontSize=13;fontColor=#F8F8F2;strokeColor=none;" parent="1" vertex="1">
          <mxGeometry x="270" y="10" width="60" height="20" as="geometry" />
        </mxCell>
        <mxCell id="101" value="" style="rounded=0;whiteSpace=wrap;html=1;strokeColor=none;strokeWidth=3;fillColor=#FF5555;fontSize=13;fontColor=#F8F8F2;align=right;" parent="1" vertex="1">
          <mxGeometry x="248" y="130" width="20" height="20" as="geometry" />
        </mxCell>
        <mxCell id="102" value="&lt;font color=&quot;#000000&quot;&gt;External Lib&lt;/font&gt;" style="text;html=1;resizable=0;points=[];autosize=1;align=left;verticalAlign=middle;spacingTop=-4;fontSize=13;fontColor=#F8F8F2;" parent="1" vertex="1">
          <mxGeometry x="270" y="130" width="90" height="20" as="geometry" />
        </mxCell>
        <mxCell id="104" value="IUserAdapter" style="rounded=1;whiteSpace=wrap;html=1;strokeColor=#9673a6;fillColor=#BD93F9;dashed=1;" parent="1" vertex="1">
          <mxGeometry x="548.12" y="430" width="150" height="50" as="geometry" />
        </mxCell>
        <mxCell id="109" value="" style="rounded=0;whiteSpace=wrap;html=1;strokeColor=#97D077;fillColor=default;" vertex="1" parent="1">
          <mxGeometry x="380" y="200" width="470" height="164" as="geometry" />
        </mxCell>
        <mxCell id="110" value="" style="edgeStyle=elbowEdgeStyle;elbow=vertical;endArrow=classic;html=1;curved=0;rounded=0;endSize=8;startSize=8;exitX=0.5;exitY=0;exitDx=0;exitDy=0;entryX=0.5;entryY=1;entryDx=0;entryDy=0;strokeColor=#6C8EBF;" edge="1" parent="1" source="11" target="81">
          <mxGeometry width="50" height="50" relative="1" as="geometry">
            <mxPoint x="610" y="530" as="sourcePoint" />
            <mxPoint x="660" y="480" as="targetPoint" />
          </mxGeometry>
        </mxCell>
        <mxCell id="113" value="UserAdapter" style="rounded=1;whiteSpace=wrap;html=1;strokeColor=#8BE9FD;fillColor=#8BE9FD;" vertex="1" parent="1">
          <mxGeometry x="548.12" y="300" width="150" height="50" as="geometry" />
        </mxCell>
        <mxCell id="115" value="&lt;b style=&quot;border-color: var(--border-color);&quot;&gt;&lt;font style=&quot;border-color: var(--border-color); font-size: 15px;&quot;&gt;INFRA&lt;br&gt;&lt;/font&gt;&lt;/b&gt;" style="text;html=1;align=center;verticalAlign=middle;resizable=0;points=[];autosize=1;strokeColor=none;fillColor=none;" vertex="1" parent="1">
          <mxGeometry x="780" y="160" width="70" height="30" as="geometry" />
        </mxCell>
        <mxCell id="116" value="UserEntityMapper" style="rounded=1;whiteSpace=wrap;html=1;strokeColor=#8BE9FD;fillColor=#8BE9FD;" vertex="1" parent="1">
          <mxGeometry x="548.75" y="216.5" width="150" height="50" as="geometry" />
        </mxCell>
        <mxCell id="126" value="" style="endArrow=classic;html=1;rounded=0;entryX=0.5;entryY=1;entryDx=0;entryDy=0;fillColor=#dae8fc;strokeColor=#6c8ebf;exitX=0.5;exitY=0;exitDx=0;exitDy=0;" edge="1" parent="1" source="113" target="116">
          <mxGeometry width="50" height="50" relative="1" as="geometry">
            <mxPoint x="622.49" y="350" as="sourcePoint" />
            <mxPoint x="622.49" y="250" as="targetPoint" />
          </mxGeometry>
        </mxCell>
        <mxCell id="141" value="ValidationBuilder" style="rounded=1;whiteSpace=wrap;html=1;strokeColor=#8BE9FD;fillColor=#8BE9FD;" vertex="1" parent="1">
          <mxGeometry x="566.25" y="770" width="113.75" height="50" as="geometry" />
        </mxCell>
        <mxCell id="142" value="RequiredFieldValidator" style="rounded=1;whiteSpace=wrap;html=1;strokeColor=#8BE9FD;fillColor=#8BE9FD;" vertex="1" parent="1">
          <mxGeometry x="391.25" y="700" width="152.5" height="50" as="geometry" />
        </mxCell>
        <mxCell id="143" value="UsernameFieldValidator" style="rounded=1;whiteSpace=wrap;html=1;strokeColor=#8BE9FD;fillColor=#8BE9FD;" vertex="1" parent="1">
          <mxGeometry x="391.25" y="910" width="150" height="50" as="geometry" />
        </mxCell>
        <mxCell id="144" value="EmailFieldValidator" style="rounded=1;whiteSpace=wrap;html=1;strokeColor=#8BE9FD;fillColor=#8BE9FD;" vertex="1" parent="1">
          <mxGeometry x="391.25" y="770" width="152.5" height="50" as="geometry" />
        </mxCell>
        <mxCell id="145" value="PasswordFieldValidator" style="rounded=1;whiteSpace=wrap;html=1;strokeColor=#8BE9FD;fillColor=#8BE9FD;" vertex="1" parent="1">
          <mxGeometry x="391.25" y="840" width="152.5" height="50" as="geometry" />
        </mxCell>
        <mxCell id="150" value="" style="edgeStyle=elbowEdgeStyle;elbow=horizontal;endArrow=classic;html=1;curved=0;rounded=0;endSize=8;startSize=8;exitX=0;exitY=0.5;exitDx=0;exitDy=0;entryX=1;entryY=0.5;entryDx=0;entryDy=0;fillColor=#dae8fc;strokeColor=#6c8ebf;" edge="1" parent="1" source="141" target="142">
          <mxGeometry width="50" height="50" relative="1" as="geometry">
            <mxPoint x="720" y="810" as="sourcePoint" />
            <mxPoint x="770" y="760" as="targetPoint" />
            <Array as="points">
              <mxPoint x="560" y="760" />
            </Array>
          </mxGeometry>
        </mxCell>
        <mxCell id="154" value="" style="endArrow=none;html=1;rounded=0;fillColor=#dae8fc;strokeColor=#6c8ebf;" edge="1" parent="1">
          <mxGeometry width="50" height="50" relative="1" as="geometry">
            <mxPoint x="560" y="790" as="sourcePoint" />
            <mxPoint x="560" y="870" as="targetPoint" />
          </mxGeometry>
        </mxCell>
        <mxCell id="156" value="" style="edgeStyle=elbowEdgeStyle;elbow=vertical;endArrow=classic;html=1;curved=0;rounded=0;endSize=8;startSize=8;entryX=1;entryY=0.5;entryDx=0;entryDy=0;fillColor=#dae8fc;strokeColor=#6c8ebf;" edge="1" parent="1" target="143">
          <mxGeometry width="50" height="50" relative="1" as="geometry">
            <mxPoint x="560" y="870" as="sourcePoint" />
            <mxPoint x="630" y="850" as="targetPoint" />
            <Array as="points">
              <mxPoint x="590" y="935" />
            </Array>
          </mxGeometry>
        </mxCell>
        <mxCell id="157" value="" style="endArrow=classic;html=1;rounded=0;entryX=1;entryY=0.5;entryDx=0;entryDy=0;fillColor=#dae8fc;strokeColor=#6c8ebf;" edge="1" parent="1" target="145">
          <mxGeometry width="50" height="50" relative="1" as="geometry">
            <mxPoint x="560" y="865" as="sourcePoint" />
            <mxPoint x="630" y="850" as="targetPoint" />
          </mxGeometry>
        </mxCell>
        <mxCell id="159" value="" style="endArrow=classic;html=1;rounded=0;entryX=1;entryY=0.5;entryDx=0;entryDy=0;fillColor=#dae8fc;strokeColor=#6c8ebf;" edge="1" parent="1" target="144">
          <mxGeometry width="50" height="50" relative="1" as="geometry">
            <mxPoint x="560" y="795" as="sourcePoint" />
            <mxPoint x="630" y="850" as="targetPoint" />
          </mxGeometry>
        </mxCell>
        <mxCell id="160" value="" style="endArrow=classic;html=1;rounded=0;exitX=1;exitY=0.5;exitDx=0;exitDy=0;entryX=0;entryY=0.5;entryDx=0;entryDy=0;dashed=1;fillColor=#dae8fc;strokeColor=#6c8ebf;" edge="1" parent="1" source="11" target="8">
          <mxGeometry width="50" height="50" relative="1" as="geometry">
            <mxPoint x="760" y="880" as="sourcePoint" />
            <mxPoint x="810" y="830" as="targetPoint" />
          </mxGeometry>
        </mxCell>
        <mxCell id="161" value="" style="endArrow=classic;html=1;rounded=0;exitX=0.5;exitY=1;exitDx=0;exitDy=0;entryX=0.5;entryY=0;entryDx=0;entryDy=0;fillColor=#dae8fc;strokeColor=#6c8ebf;" edge="1" parent="1" source="8" target="9">
          <mxGeometry width="50" height="50" relative="1" as="geometry">
            <mxPoint x="640" y="880" as="sourcePoint" />
            <mxPoint x="690" y="830" as="targetPoint" />
          </mxGeometry>
        </mxCell>
        <mxCell id="164" value="" style="endArrow=classic;html=1;rounded=0;exitX=0.5;exitY=1;exitDx=0;exitDy=0;entryX=0.5;entryY=0;entryDx=0;entryDy=0;fillColor=#dae8fc;strokeColor=#6c8ebf;" edge="1" parent="1">
          <mxGeometry width="50" height="50" relative="1" as="geometry">
            <mxPoint x="623.51" y="750" as="sourcePoint" />
            <mxPoint x="623.51" y="770" as="targetPoint" />
          </mxGeometry>
        </mxCell>
        <mxCell id="165" value="" style="edgeStyle=elbowEdgeStyle;elbow=vertical;endArrow=classic;html=1;curved=0;rounded=0;endSize=8;startSize=8;entryX=0.5;entryY=1;entryDx=0;entryDy=0;strokeColor=#6C8EBF;" edge="1" parent="1" target="104">
          <mxGeometry width="50" height="50" relative="1" as="geometry">
            <mxPoint x="623" y="538" as="sourcePoint" />
            <mxPoint x="625.66" y="485" as="targetPoint" />
          </mxGeometry>
        </mxCell>
        <mxCell id="166" value="" style="edgeStyle=elbowEdgeStyle;elbow=vertical;endArrow=classic;html=1;curved=0;rounded=0;endSize=8;startSize=8;strokeColor=#6C8EBF;exitX=1;exitY=0.5;exitDx=0;exitDy=0;entryX=0.5;entryY=1;entryDx=0;entryDy=0;" edge="1" parent="1" source="81" target="79">
          <mxGeometry width="50" height="50" relative="1" as="geometry">
            <mxPoint x="710" y="590" as="sourcePoint" />
            <mxPoint x="710" y="532" as="targetPoint" />
            <Array as="points">
              <mxPoint x="783" y="565" />
            </Array>
          </mxGeometry>
        </mxCell>
        <mxCell id="169" value="" style="edgeStyle=elbowEdgeStyle;elbow=vertical;endArrow=classic;html=1;curved=0;rounded=0;endSize=8;startSize=8;entryX=0.5;entryY=1;entryDx=0;entryDy=0;strokeColor=#6C8EBF;exitX=0.5;exitY=0;exitDx=0;exitDy=0;" edge="1" parent="1" source="104" target="113">
          <mxGeometry width="50" height="50" relative="1" as="geometry">
            <mxPoint x="621.28" y="408" as="sourcePoint" />
            <mxPoint x="621.28" y="350" as="targetPoint" />
          </mxGeometry>
        </mxCell>
        <mxCell id="170" value="JPARepository" style="rounded=1;whiteSpace=wrap;html=1;strokeColor=#8BE9FD;fillColor=#FF5555;" vertex="1" parent="1">
          <mxGeometry x="210" y="300" width="150" height="50" as="geometry" />
        </mxCell>
        <mxCell id="171" value="" style="endArrow=classic;html=1;rounded=0;entryX=1;entryY=0.5;entryDx=0;entryDy=0;exitX=0;exitY=0.5;exitDx=0;exitDy=0;fillColor=#dae8fc;strokeColor=#6c8ebf;" edge="1" parent="1" source="113" target="170">
          <mxGeometry width="50" height="50" relative="1" as="geometry">
            <mxPoint x="540" y="480" as="sourcePoint" />
            <mxPoint x="590" y="430" as="targetPoint" />
          </mxGeometry>
        </mxCell>
        <mxCell id="172" value="UserDTOMapper" style="rounded=1;whiteSpace=wrap;html=1;strokeColor=#8BE9FD;fillColor=#8BE9FD;" vertex="1" parent="1">
          <mxGeometry x="722.5" y="840" width="120" height="50" as="geometry" />
        </mxCell>
        <mxCell id="174" value="" style="edgeStyle=segmentEdgeStyle;endArrow=classic;html=1;curved=0;rounded=0;endSize=8;startSize=8;exitX=1;exitY=0.5;exitDx=0;exitDy=0;entryX=0;entryY=0.5;entryDx=0;entryDy=0;fillColor=#dae8fc;strokeColor=#6c8ebf;" edge="1" parent="1" source="11" target="172">
          <mxGeometry width="50" height="50" relative="1" as="geometry">
            <mxPoint x="540" y="830" as="sourcePoint" />
            <mxPoint x="590" y="780" as="targetPoint" />
            <Array as="points">
              <mxPoint x="690" y="725" />
              <mxPoint x="690" y="865" />
            </Array>
          </mxGeometry>
        </mxCell>
      </root>
    </mxGraphModel>
  </diagram>
</mxfile>
